<svg width="1000" height="1000" viewBox="0 0 772 741" fill="none" class="sc-fzoVTD Atfvz"><path d="M704.614 186.168c-2.16 9.324-7.558 13.25-15.656 14.722-1.62-1.963-3.24-4.416-4.86-5.888-8.097-4.417-15.655-8.834-23.213-12.76 0-3.434.54-5.888 0-7.851-1.62-3.435-4.32-7.361-2.7-10.796 2.16-5.89 4.32-11.778 8.099-16.685 5.398-7.361 12.416-14.231 18.355-20.61h7.558c6.478 5.398 12.957 8.833 17.275 13.74 4.319 4.907 7.558 11.287 11.338 17.175-9.178 9.324-17.816 18.157-16.196 28.953z" fill="#d295bf" data-svg-origin="668.9283447265625 112.86799621582031" style="transform-origin:0 0"/><path d="M420.645 18.34c1.08 5.888 8.099 8.342 8.637 15.212 0 2.944 2.16 5.889-.538 9.324-2.7 3.925-3.78 8.342-5.4 12.759-.54-.491-1.08-.982-2.159-1.473-4.858 3.435-5.399 4.417-8.637 12.269-7.558 1.962-15.656 3.925-25.375 5.888-5.398-3.435-13.495-4.416-19.974-8.342-1.62-9.815-14.037-16.685-9.718-28.462l7.558-6.87c1.62.98 2.7 1.962 4.32 2.453 7.018 2.454 12.957-.49 17.815-4.416 5.399-3.926 9.718-8.834 15.115-13.25h10.259l-6.48 8.833c8.099 4.417 8.639-4.417 14.577-3.926z" fill="#F1F1F1" data-svg-origin="367.8168029785156 0" style="transform-origin:0 0"/><path d="M747.802 312.776h4.859c3.779 3.926 7.018 7.852 10.797 12.759.54 6.87 1.619 14.722-5.4 20.61.54 5.399-4.318 10.306-3.238 16.195.54 4.416-1.08 9.324-3.24 13.25-1.08 2.453-4.858 3.435-7.558 4.907-9.717-5.89-18.894-11.287-24.293-15.213-9.178-13.74-3.78-24.536 0-34.841 4.859-13.741 8.638-18.157 22.673-25.518 1.62 2.453 3.24 4.907 5.4 7.85z" fill="#08415c" data-svg-origin="725.9171142578125 291.4930114746094" style="transform-origin:0 0"/><path d="M108.067 215.12c2.16 9.325-5.939 18.649-19.975 25.029-.54-.491-1.62-1.473-2.699-1.963-1.08.98-2.16 1.963-3.24 2.453-5.938-1.963-11.876-4.416-18.894-6.87-1.62-2.454-3.78-5.89-6.479-9.815 2.16-1.472 3.78-3.435 5.4-4.416 1.619-.491 3.778 0 5.937 0 1.08-3.926 1.62-8.342 2.7-12.268-3.24-5.398-7.018-11.778-11.337-18.157 3.239-2.454 5.938-4.908 8.637-7.361h7.559c11.337 7.85 25.912 13.74 32.391 33.369z" fill="#d295bf" data-svg-origin="68.02290344238281 168.32000732421875" style="transform-origin:0 0"/><path d="M302.416 517.41c2.699-2.944 4.318-5.398 7.017-8.833 2.7-.981 7.019-2.454 11.877-3.926.54 3.435 1.08 5.889 2.16 9.324 2.16-.491 4.318-.981 5.938-1.472 6.478-1.472 2.7 6.379 8.638 7.36 2.7.492 4.858 5.399 7.558 9.815 1.62 5.889-.54 12.269-5.399 18.157.54.982 1.62 1.963 2.7 2.945-1.62.98-2.7 2.453-4.318 3.435-.54-.491-2.7-2.454-2.7-1.963-7.558 5.889-13.497-.491-19.976-2.454-5.398-1.963-10.796-4.416-15.656-6.38-3.238-5.397-5.938-11.286-9.716-17.175-.54-11.777.54-13.74 10.257-20.12 0 2.945 1.08 6.38 1.62 11.287z" fill="#F1F1F1" data-svg-origin="301.66796875 491.218994140625" style="transform-origin:0 0"/><path d="M527.538 490.91c-5.938-1.962-9.716-3.434-14.035-4.906v-2.945c-6.478-1.963-12.957-3.926-19.976-5.89-1.62-7.85-3.238-14.72-4.318-20.61 4.859-5.397 11.877-5.888 14.037-12.267.539-2.454 6.478-3.926 11.337-6.871 1.079 2.454 2.159 4.417 3.239 6.87 0 0-1.08 2.454-1.62 4.417.54.49 1.62.982 2.16.982 1.619-1.963 2.699-4.417 4.858-7.361 5.399 6.379 11.337 10.796 12.957 16.684 1.62 5.398 5.399 10.306 2.699 17.176-2.16 6.87-11.877 5.889-11.337 14.722z" fill="#F1F1F1" data-svg-origin="500.45098876953125 423.989013671875" style="transform-origin:0 0"/><path d="M199.843 344.674h-15.117c-3.239 4.416 2.16 10.796-9.716 13.249-10.257-.49-22.135-5.398-29.692-17.666V329.46l9.716-8.833c.54.49 2.16 1.472 3.24 2.454 4.319-4.417 9.718-1.963 13.496-2.454 12.417 5.889 23.754 10.305 28.072 24.046z" fill="#F1F1F1" data-svg-origin="156.55999755859375 306.95074462890625" style="transform-origin:0 0"/><path d="M114.544 566.974h6.48a80.198 80.198 0 002.159 5.398c5.937-.491 13.495-.491 16.195 3.926 3.24 5.398 10.798 4.907 12.418 13.249v21.592c-9.719 5.889-16.196-5.888-24.294-3.926-5.94-3.435-8.639-9.814-14.576-13.25-3.24-1.962-5.4-6.38-5.4-11.286.54-2.944 0-6.38 0-9.324l7.019-6.38z" fill="#F1F1F1" data-svg-origin="118.76899719238281 553.5419921875" style="transform-origin:0 0"/><path d="M459.515 647.944c-5.397-6.87-13.495-6.87-21.053-9.324-2.16-2.454-4.32-5.398-7.019-9.324v-21.101c1.62-1.472 4.858-2.944 9.178-6.38 3.238.49 9.178 1.473 14.036 2.454 12.416 5.889 12.416 17.666 18.356 27.48-4.32 5.399-8.638 10.797-13.498 16.195z" fill="#F1F1F1" data-svg-origin="442.6860046386719 588.3829956054688" style="transform-origin:0 0"/><path d="M202.002 475.208c1.62.49 2.7.49 4.86.98v12.76c-2.7 3.435-4.86 5.889-6.478 8.342-8.638-1.963-16.196-3.926-24.834-5.888-.54-1.473-.54-3.926-1.08-6.871-1.62-.49-2.7-.49-4.319-.981-4.319-10.305 6.478-16.685 8.098-25.518 6.478.49 8.099-9.324 16.736-5.89 0 .492.54 1.964 1.08 3.927 1.62.49 4.319.49 7.017.982l6.48 5.888c-2.16 4.908-4.86 8.343-7.56 12.269z" fill="#F1F1F1" data-svg-origin="180.38156127929688 437.9801025390625" style="transform-origin:0 0"/><path d="M599.88 324.063c2.699-.981 4.859-1.963 6.478-2.453 5.939 9.323 17.816 16.684 16.196 30.915-4.86 2.454-10.797 5.398-15.656 7.852-4.32-1.963-8.098-3.926-11.337-5.398-3.78-4.416-7.019-8.342-11.337-12.76-1.08-5.888-2.16-12.758-3.78-19.628 3.24-1.963 5.939-3.926 9.719-6.87h8.096c.54 2.453 1.08 4.907 1.62 8.342z" fill="#b9314f" data-svg-origin="591.68701171875 302.28900146484375" style="transform-origin:0 0"/><path d="M636.59 541.456c-1.078 1.472-2.159 3.435-3.238 5.398 4.319 1.963 8.098 2.944 11.877-1.963.54 2.454 1.08 3.926.54 4.907-1.08 2.945-2.16 5.398-3.24 8.343 4.859-2.454 5.399-2.945 8.638-8.343 2.16 5.889 5.399 10.796 5.938 15.703.54 4.908-1.62 9.815-2.698 14.722-1.62-.49-3.78-1.963-4.32-1.472-4.318 3.435-8.637 2.945-12.956.49-4.32-2.453-8.098-1.471-10.797 2.945-2.16-1.472-3.78-2.944-5.4-3.926.54-2.944 1.62-5.888 2.16-8.833l-6.479-2.944c1.08-5.398 2.7-10.796 4.32-17.176 4.319-2.453 9.718-5.888 14.577-8.833.539 0 .539.49 1.079.982z" fill="#08415c" data-svg-origin="627.8579711914062 527.0419921875" style="transform-origin:0 0"/><path d="M451.418 192.057c-4.32-2.453-7.559-4.416-11.338-5.89-9.178-4.415-9.178-4.415-12.416-13.74-.54-2.453-1.62-4.906-3.24-6.87-1.62-2.944-4.318-5.397-5.938-8.342-1.62-2.453-2.16-5.398-3.24-8.342 2.7-3.435 5.94-6.38 9.719-7.852 19.435 10.796 19.435 7.36 31.85 38.277-1.079 3.926-3.238 8.833-5.397 12.759z" fill="#d295bf" data-svg-origin="426.489013671875 127.58899688720703" style="transform-origin:0 0"/><path d="M574.506 53.18c1.619 0 3.779.492 5.938.492 8.638 9.814 15.116 20.61 11.877 32.878l-12.957 1.473c-3.24-3.435-7.019-6.87-9.178-9.324-4.858-1.963-9.178-1.963-10.798-3.926-4.857-6.87-5.938-15.213-4.857-24.046 3.779-1.963 7.558-3.926 12.417-6.38 2.699 2.945 4.858 5.399 7.558 8.834z" fill="#F1F1F1" data-svg-origin="565.3902587890625 30.915800094604492" style="transform-origin:0 0"/><path d="M566.409 179.298v7.36c3.779.492 7.018.492 11.337.983v5.888c14.037 4.417 12.417 14.722 12.417 25.028-16.736 2.944-26.993-6.871-37.25-15.704-1.62-5.398-2.7-10.305-4.32-15.703 3.24-5.89 9.179-8.342 17.816-7.852z" fill="#d295bf" data-svg-origin="559.8359985351562 165.8050994873047" style="transform-origin:0 0"/><path d="M245.731 198.437c3.78-1.963 7.019-3.926 10.257-5.398 9.178 6.87 21.596 9.814 26.993 18.647 1.62 4.417 2.7 6.87 3.78 10.796l-3.78 6.87c-2.699.982-4.319 1.963-6.478 2.454-4.318-1.472-9.178-3.435-14.036-5.398-10.257-6.38-17.275-14.722-16.736-27.971z" fill="#d295bf" data-svg-origin="256.9448547363281 179.60699462890625" style="transform-origin:0 0"/><path d="M225.216 684.258c-3.239-3.926-5.938-8.343-9.177-12.268.54-2.454 1.08-4.417 2.16-6.38-.54 0-1.08-.491-1.62-.491 4.318-5.398 8.637-10.305 12.416-15.212 16.197 3.435 19.435 15.212 24.294 25.518-2.159 3.926-4.318 7.85-6.478 11.286-6.479-.981-13.497-1.472-21.595-2.453z" fill="#F1F1F1" data-svg-origin="227.28199768066406 636.4749755859375" style="transform-origin:0 0"/><path d="M176.63 98.328c3.24-2.945 5.939-5.398 8.637-7.361 7.02.49 13.498-.49 19.976 6.87 7.017 8.343 10.257 9.324 12.416 14.722 0 .49.54.49 1.08.982-3.779 2.944-2.7 10.796-12.417 9.323-3.239-2.944-8.097-4.907-14.576-5.888-4.859-.491-9.718-5.89-14.577-9.324 1.62-1.963 2.7-3.435 3.78-4.908-1.62-.981-2.7-2.453-4.319-4.416z" fill="#F1F1F1" data-svg-origin="187.8730010986328 77.53500366210938" style="transform-origin:0 0"/></svg>